<?xml version="1.0" encoding="utf-8"?>
<!-- Generator: Adobe Illustrator 21.1.0, SVG Export Plug-In . SVG Version: 6.00 Build 0)  -->
<svg version="1.1" id="Layer_1" xmlns="http://www.w3.org/2000/svg" xmlns:xlink="http://www.w3.org/1999/xlink" x="0px" y="0px"
	 viewBox="0 0 800 800" style="enable-background:new 0 0 800 800;" xml:space="preserve">
<style type="text/css">
	.st0{fill:#E86D46;}
	.st1{opacity:0.2;}
	.st2{fill:#FFFFFF;}
	.st3{fill:#FA9D36;}
	.st4{fill:#5B3739;}
	.st5{fill:#F04331;}
	.st6{fill:#1175BC;}
	.st7{fill:#9CCE4F;}
	.st8{fill:#BCBBC0;}
</style>
<rect class="st0" width="800" height="800"/>
<polygon class="st1" points="109,688 220,800 800,800 800,220 691,111 "/>
<path class="st2" d="M665,700H135c-19.2,0-35-15.8-35-35V135c0-19.2,15.8-35,35-35h530c19.2,0,35,15.8,35,35v530
	C700,684.2,684.2,700,665,700z"/>
<rect x="144" y="210.2" class="st3" width="512" height="231"/>
<path class="st4" d="M100,164.8v-30c0-19.2,15.8-35,35-35h530c19.2,0,35,15.8,35,35v30H100z"/>
<circle class="st5" cx="400" cy="325.8" r="65"/>
<polygon class="st2" points="384,303 384,351 425,328 "/>
<circle class="st5" cx="150.5" cy="133.5" r="7.5"/>
<circle class="st6" cx="180.5" cy="133.5" r="7.5"/>
<circle class="st7" cx="210.5" cy="133.5" r="7.5"/>
<rect x="327" y="120.2" class="st2" width="329" height="24"/>
<rect x="364" y="484" class="st8" width="292" height="23"/>
<rect x="144" y="483" class="st8" width="183" height="175"/>
<rect x="364" y="534.3" class="st8" width="292" height="23"/>
<rect x="364" y="584.7" class="st8" width="292" height="23"/>
<rect x="364" y="635" class="st8" width="292" height="23"/>
</svg>
